<?xml version="1.0" encoding="utf-8"?>
<!-- Generator: Adobe Illustrator 16.0.0, SVG Export Plug-In . SVG Version: 6.00 Build 0)  -->
<!DOCTYPE svg PUBLIC "-//W3C//DTD SVG 1.1//EN" "http://www.w3.org/Graphics/SVG/1.1/DTD/svg11.dtd">
<svg version="1.1" id="Layer_1" xmlns="http://www.w3.org/2000/svg" xmlns:xlink="http://www.w3.org/1999/xlink" x="0px" y="0px"
	 width="512px" height="512px" viewBox="-556.5 154.5 512 512" enable-background="new -556.5 154.5 512 512" xml:space="preserve">
<path fill="#444444" d="M-172.5,410.5c0,3.795-1.458,7.178-4.4,10.119l-205.006,205.02c-2.929,2.916-6.297,4.373-10.105,4.373
	c-3.808,0-7.177-1.457-10.105-4.373l-21.998-21.998c-2.929-2.941-4.386-6.324-4.386-10.119c0-3.793,1.457-7.176,4.386-10.117
	L-251.197,410.5l-172.917-172.902c-2.929-2.943-4.386-6.324-4.386-10.119s1.457-7.178,4.386-10.119l21.998-21.998
	c2.928-2.914,6.297-4.373,10.105-4.373c3.809,0,7.177,1.459,10.105,4.373l205.006,205.02
	C-173.958,403.324-172.5,406.705-172.5,410.5z"/>
</svg>
