<?xml version="1.0" encoding="utf-8"?>
<!-- Generator: Adobe Illustrator 16.0.0, SVG Export Plug-In . SVG Version: 6.00 Build 0)  -->
<!DOCTYPE svg PUBLIC "-//W3C//DTD SVG 1.1//EN" "http://www.w3.org/Graphics/SVG/1.1/DTD/svg11.dtd">
<svg version="1.1" id="Layer_1" xmlns="http://www.w3.org/2000/svg" xmlns:xlink="http://www.w3.org/1999/xlink" x="0px" y="0px"
	 width="512px" height="512px" viewBox="-552.5 154.5 512 512" enable-background="new -552.5 154.5 512 512" xml:space="preserve">
<path fill="#444444" d="M-76.989,502.011c0,3.795-1.457,7.177-4.398,10.119l-21.998,21.998c-2.915,2.914-6.27,4.372-10.092,4.372
	s-7.177-1.458-10.092-4.372L-296.5,361.197l-172.917,172.931c-2.929,2.914-6.297,4.372-10.105,4.372s-7.177-1.458-10.105-4.372
	l-21.998-21.998c-2.929-2.942-4.386-6.324-4.386-10.119s1.457-7.177,4.386-10.119l205.02-205.02
	c2.928-2.915,6.297-4.372,10.105-4.372c3.809,0,7.177,1.457,10.105,4.372l205.007,205.02
	C-78.446,494.834-76.989,498.216-76.989,502.011z"/>
</svg>
