<?xml version="1.0" encoding="utf-8"?>
<!-- Generator: Adobe Illustrator 16.0.0, SVG Export Plug-In . SVG Version: 6.00 Build 0)  -->
<!DOCTYPE svg PUBLIC "-//W3C//DTD SVG 1.1//EN" "http://www.w3.org/Graphics/SVG/1.1/DTD/svg11.dtd">
<svg version="1.1" id="Layer_1" xmlns="http://www.w3.org/2000/svg" xmlns:xlink="http://www.w3.org/1999/xlink" x="0px" y="0px"
	 width="512px" height="512px" viewBox="-552.5 154.5 512 512" enable-background="new -552.5 154.5 512 512" xml:space="preserve">
<path fill="#444444" d="M-76.989,320.454c0,3.794-1.457,7.177-4.399,10.119l-205.006,205.02c-2.929,2.915-6.297,4.372-10.105,4.372
	s-7.177-1.457-10.105-4.372l-205.02-205.02c-2.929-2.942-4.386-6.325-4.386-10.119c0-3.795,1.457-7.177,4.386-10.119l21.998-21.998
	c2.928-2.915,6.297-4.372,10.104-4.372c3.809,0,7.177,1.457,10.105,4.372L-296.5,461.268l172.931-172.931
	c2.915-2.915,6.27-4.372,10.092-4.372s7.177,1.457,10.091,4.372l21.998,21.998C-78.446,313.277-76.989,316.659-76.989,320.454z"/>
</svg>
