<?xml version="1.0" encoding="utf-8"?>
<!-- Generator: Adobe Illustrator 16.0.0, SVG Export Plug-In . SVG Version: 6.00 Build 0)  -->
<!DOCTYPE svg PUBLIC "-//W3C//DTD SVG 1.1//EN" "http://www.w3.org/Graphics/SVG/1.1/DTD/svg11.dtd">
<svg version="1.1" id="Layer_1" xmlns="http://www.w3.org/2000/svg" xmlns:xlink="http://www.w3.org/1999/xlink" x="0px" y="0px"
	 width="512px" height="512px" viewBox="-556.5 154.5 512 512" enable-background="new -556.5 154.5 512 512" xml:space="preserve">
<path fill="#444444" d="M-172.5,227.479c0,3.795-1.458,7.176-4.4,10.119L-349.803,410.5L-176.9,583.404
	c2.942,2.941,4.4,6.324,4.4,10.117c0,3.795-1.458,7.178-4.4,10.119l-21.998,21.998c-2.915,2.916-6.27,4.373-10.092,4.373
	c-3.822,0-7.177-1.457-10.091-4.373l-205.034-205.02c-2.928-2.941-4.386-6.324-4.386-10.119s1.458-7.176,4.386-10.119
	l205.034-205.02c2.915-2.914,6.27-4.373,10.091-4.373c3.822,0,7.177,1.459,10.092,4.373l21.998,21.998
	C-173.958,220.301-172.5,223.684-172.5,227.479z"/>
</svg>
