<?xml version="1.0" encoding="utf-8"?>
<!-- Generator: Adobe Illustrator 16.0.0, SVG Export Plug-In . SVG Version: 6.00 Build 0)  -->
<!DOCTYPE svg PUBLIC "-//W3C//DTD SVG 1.1//EN" "http://www.w3.org/Graphics/SVG/1.1/DTD/svg11.dtd">
<svg version="1.1" id="Layer_1" xmlns="http://www.w3.org/2000/svg" xmlns:xlink="http://www.w3.org/1999/xlink" x="0px" y="0px"
	 width="512px" height="512px" viewBox="-547.5 154.5 512 512" enable-background="new -547.5 154.5 512 512" xml:space="preserve">
<path fill="#444444" d="M-92.137,339.265c0,4.359-1.562,8.116-4.699,11.256L-280.365,533.8c-3.139,3.124-6.849,4.7-11.131,4.7
	s-7.992-1.576-11.131-4.7l-183.529-183.279c-3.138-3.14-4.707-6.896-4.707-11.256s1.569-8.132,4.707-11.253l41.06-40.812
	c3.138-3.14,6.848-4.7,11.13-4.7c4.282,0,7.992,1.561,11.13,4.7l131.34,131.34l131.34-131.34c3.138-3.14,6.848-4.7,11.13-4.7
	c4.282,0,7.992,1.561,11.13,4.7l41.06,40.812C-93.698,331.133-92.137,334.905-92.137,339.265z"/>
</svg>
