<?xml version="1.0" encoding="utf-8"?>
<!-- Generator: Adobe Illustrator 16.0.0, SVG Export Plug-In . SVG Version: 6.00 Build 0)  -->
<!DOCTYPE svg PUBLIC "-//W3C//DTD SVG 1.1//EN" "http://www.w3.org/Graphics/SVG/1.1/DTD/svg11.dtd">
<svg version="1.1" id="Layer_1" xmlns="http://www.w3.org/2000/svg" xmlns:xlink="http://www.w3.org/1999/xlink" x="0px" y="0px"
	 width="512px" height="512px" viewBox="-551.5 154.5 512 512" enable-background="new -551.5 154.5 512 512" xml:space="preserve">
<path fill="#444444" d="M-172.195,421.619l-183.346,183.346c-3.135,3.135-6.842,4.695-11.12,4.695s-7.984-1.561-11.12-4.695
	l-41.018-41.018c-3.135-3.136-4.703-6.842-4.703-11.12c0-4.277,1.567-7.984,4.703-11.119L-287.589,410.5l-131.208-131.209
	c-3.135-3.135-4.703-6.841-4.703-11.119c0-4.277,1.567-7.984,4.703-11.119l41.018-41.018c3.136-3.136,6.842-4.695,11.12-4.695
	s7.984,1.56,11.12,4.695l183.346,183.346c3.135,3.135,4.695,6.841,4.695,11.119C-167.5,414.777-169.06,418.484-172.195,421.619z"/>
</svg>
