<?xml version="1.0" encoding="utf-8"?>
<!-- Generator: Adobe Illustrator 16.0.0, SVG Export Plug-In . SVG Version: 6.00 Build 0)  -->
<!DOCTYPE svg PUBLIC "-//W3C//DTD SVG 1.1//EN" "http://www.w3.org/Graphics/SVG/1.1/DTD/svg11.dtd">
<svg version="1.1" id="Layer_1" xmlns="http://www.w3.org/2000/svg" xmlns:xlink="http://www.w3.org/1999/xlink" x="0px" y="0px"
	 width="512px" height="512px" viewBox="-551.5 154.5 512 512" enable-background="new -551.5 154.5 512 512" xml:space="preserve">
<path fill="#444444" d="M-423.5,410.5c0-4.278,1.56-7.984,4.695-11.119l183.346-183.346c3.135-3.136,6.842-4.695,11.12-4.695
	s7.984,1.56,11.12,4.695l41.018,41.018c3.135,3.135,4.703,6.842,4.703,11.119c0,4.278-1.567,7.984-4.703,11.119L-303.411,410.5
	l131.208,131.208c3.135,3.135,4.703,6.842,4.703,11.119c0,4.278-1.567,7.984-4.703,11.12l-41.018,41.018
	c-3.136,3.135-6.842,4.695-11.12,4.695s-7.984-1.561-11.12-4.695l-183.346-183.346C-421.94,418.484-423.5,414.777-423.5,410.5z"/>
</svg>
