<?xml version="1.0" encoding="utf-8"?>
<!-- Generator: Adobe Illustrator 16.0.0, SVG Export Plug-In . SVG Version: 6.00 Build 0)  -->
<!DOCTYPE svg PUBLIC "-//W3C//DTD SVG 1.1//EN" "http://www.w3.org/Graphics/SVG/1.1/DTD/svg11.dtd">
<svg version="1.1" id="Layer_1" xmlns="http://www.w3.org/2000/svg" xmlns:xlink="http://www.w3.org/1999/xlink" x="0px" y="0px"
	 width="512px" height="512px" viewBox="-553.5 154.5 512 512" enable-background="new -553.5 154.5 512 512" xml:space="preserve">
<path fill="#444444" d="M-241.507,330.503c0,2.156-0.781,4.047-2.375,5.625c-1.563,1.594-3.438,2.375-5.625,2.375
	c-2.187,0-4.062-0.797-5.625-2.375c-1.594-1.563-2.375-3.438-2.375-5.625c0-7.671-4.5-13.593-13.5-17.749s-17.843-6.25-26.499-6.25
	c-2.156,0-4.031-0.781-5.625-2.375c-1.594-1.563-2.375-3.452-2.375-5.624s0.797-4.063,2.375-5.625
	c1.563-1.594,3.438-2.375,5.625-2.375c8.328,0,16.625,1.344,24.874,4c8.25,2.656,15.5,7.172,21.749,13.499
	C-244.632,314.348-241.507,321.848-241.507,330.503z M-201.509,330.503c0-11.999-2.875-23.171-8.625-33.498
	c-5.75-10.344-13.25-18.796-22.499-25.374c-9.25-6.594-19.499-11.75-30.749-15.5c-11.25-3.765-22.624-5.64-34.124-5.64
	s-22.874,1.875-34.124,5.64c-11.25,3.75-21.499,8.906-30.749,15.5c-9.25,6.578-16.75,15.03-22.499,25.374
	c-5.75,10.327-8.625,21.499-8.625,33.498c0,16.828,5.656,31.827,17,44.998c1.656,1.828,4.203,4.578,7.625,8.25
	c3.422,3.656,5.969,6.422,7.625,8.25c21.343,25.499,33.092,50.342,35.249,74.497h57.013c2.172-24.171,13.921-48.998,35.233-74.497
	c1.672-1.828,4.219-4.594,7.64-8.25c3.422-3.672,5.969-6.422,7.641-8.25c11.312-13.171,16.983-28.17,16.983-44.998H-201.509z
	 M-169.51,330.503c0,25.843-8.578,48.17-25.749,66.998c-7.5,8.187-13.703,15.437-18.625,21.749
	c-4.906,6.327-9.875,14.28-14.874,23.874c-5,9.593-7.844,18.546-8.5,26.874c7.844,4.671,11.75,11.499,11.75,20.499
	c0,6.155-2.093,11.499-6.25,15.999c4.156,4.5,6.25,9.844,6.25,15.999c0,8.656-3.75,15.406-11.25,20.249
	c2.156,3.844,3.25,7.75,3.25,11.75c0,7.672-2.625,13.593-7.875,17.749c-5.25,4.156-11.703,6.25-19.375,6.25
	c-3.343,7.344-8.343,13.171-14.999,17.499c-6.672,4.344-13.921,6.5-21.75,6.5c-7.828,0-15.077-2.156-21.749-6.5
	c-6.656-4.328-11.656-10.155-15-17.499c-7.671,0-14.124-2.094-19.374-6.25c-5.25-4.188-7.875-10.093-7.875-17.749
	c0-4,1.094-7.906,3.25-11.75c-7.5-4.827-11.25-11.577-11.25-20.249c0-6.155,2.094-11.499,6.25-15.999
	c-4.156-4.5-6.25-9.844-6.25-15.999c0-9,3.906-15.844,11.75-20.499c-0.688-8.328-3.5-17.281-8.5-26.874
	c-5-9.594-9.953-17.547-14.875-23.874c-4.937-6.313-11.14-13.563-18.624-21.749c-17.171-18.828-25.749-41.155-25.749-66.998
	c0-16.499,3.703-31.873,11.125-46.123c7.406-14.249,17.156-26.093,29.249-35.498c12.078-9.422,25.749-16.844,40.982-22.265
	c15.234-5.422,30.78-8.125,46.623-8.125c15.828,0,31.39,2.703,46.623,8.125c15.234,5.421,28.905,12.843,40.983,22.265
	c12.093,9.405,21.843,21.249,29.249,35.498c7.406,14.25,11.125,29.624,11.125,46.123H-169.51z"/>
</svg>
