<?xml version="1.0" encoding="utf-8"?>
<!-- Generator: Adobe Illustrator 16.0.0, SVG Export Plug-In . SVG Version: 6.00 Build 0)  -->
<!DOCTYPE svg PUBLIC "-//W3C//DTD SVG 1.1//EN" "http://www.w3.org/Graphics/SVG/1.1/DTD/svg11.dtd">
<svg version="1.1" id="Layer_1" xmlns="http://www.w3.org/2000/svg" xmlns:xlink="http://www.w3.org/1999/xlink" x="0px" y="0px"
	 width="512px" height="512px" viewBox="-553.5 148.5 512 512" enable-background="new -553.5 148.5 512 512" xml:space="preserve">
<path fill="#444444" d="M-185.5,148.5h-224c-26.406,0-48,21.594-48,48v416c0,26.406,21.594,48,48,48h224c26.406,0,48-21.594,48-48
	v-416C-137.5,170.094-159.094,148.5-185.5,148.5z M-361.5,172.5h128v16h-128V172.5z M-297.5,628.5c-17.656,0-32-14.344-32-32
	s14.344-32,32-32s32,14.344,32,32S-279.844,628.5-297.5,628.5z M-169.5,532.5h-256v-320h256V532.5z"/>
<rect x="-329.5" y="276.5" fill="#444444" width="64" height="192"/>
<rect x="-393.5" y="340.5" fill="#444444" width="192" height="64"/>
</svg>
