<?xml version="1.0" encoding="utf-8"?>
<!-- Generator: Adobe Illustrator 16.0.0, SVG Export Plug-In . SVG Version: 6.00 Build 0)  -->
<!DOCTYPE svg PUBLIC "-//W3C//DTD SVG 1.1//EN" "http://www.w3.org/Graphics/SVG/1.1/DTD/svg11.dtd">
<svg version="1.1" id="Layer_1" xmlns="http://www.w3.org/2000/svg" xmlns:xlink="http://www.w3.org/1999/xlink" x="0px" y="0px"
	 width="512px" height="512px" viewBox="0 0 512 512" enable-background="new 0 0 512 512" xml:space="preserve">
<path d="M256,64C149.961,64,64,149.961,64,256s85.961,192,192,192s192-85.961,192-192S362.039,64,256,64z M254.87,352
	c-32.235,0-54.575-11.311-69.845-29.125l18.945-22.904c12.442,14.703,29.691,22.621,50.616,22.621
	c24.035,0,38.74-14.703,38.74-33.367c0-20.076-14.705-33.366-37.891-33.366c-15.835,0-29.126,4.808-41.285,16.118l-23.47-6.787V160
	h123.57v29.125h-90.485v54.292c9.331-8.766,24.6-16.118,42.698-16.118c31.951,0,60.512,22.056,60.512,60.795
	C326.975,327.115,297.002,352,254.87,352z"/>
</svg>
