<?xml version="1.0" encoding="utf-8"?>
<!-- Generator: Adobe Illustrator 16.0.0, SVG Export Plug-In . SVG Version: 6.00 Build 0)  -->
<!DOCTYPE svg PUBLIC "-//W3C//DTD SVG 1.1//EN" "http://www.w3.org/Graphics/SVG/1.1/DTD/svg11.dtd">
<svg version="1.1" id="Layer_1" xmlns="http://www.w3.org/2000/svg" xmlns:xlink="http://www.w3.org/1999/xlink" x="0px" y="0px"
	 width="512px" height="512px" viewBox="0 0 512 512" enable-background="new 0 0 512 512" xml:space="preserve">
<g>
	<path d="M312.846,188.981c-30.375,0-41.242,31.21-41.242,66.879c0,35.391,10.867,67.158,41.242,67.158
		c30.096,0,40.963-31.768,40.963-67.158C353.809,220.191,343.221,188.981,312.846,188.981z"/>
	<path d="M256,64C149.961,64,64,149.961,64,256s85.961,192,192,192s192-85.961,192-192S362.039,64,256,64z M206.958,348.656h-32.604
		V204.865l-30.374,31.768l-18.95-19.785l53.505-54.061h28.424V348.656z M312.846,352c-52.389,0-74.403-49.603-74.403-96.14
		c0-46.816,22.014-95.86,74.403-95.86c52.111,0,74.125,49.044,74.125,95.86C386.971,302.397,364.957,352,312.846,352z"/>
</g>
</svg>
