<?xml version="1.0" encoding="utf-8"?>
<!-- Generator: Adobe Illustrator 16.0.0, SVG Export Plug-In . SVG Version: 6.00 Build 0)  -->
<!DOCTYPE svg PUBLIC "-//W3C//DTD SVG 1.1//EN" "http://www.w3.org/Graphics/SVG/1.1/DTD/svg11.dtd">
<svg version="1.1" id="Layer_1" xmlns="http://www.w3.org/2000/svg" xmlns:xlink="http://www.w3.org/1999/xlink" x="0px" y="0px"
	 width="512px" height="512px" viewBox="0 0 512 512" enable-background="new 0 0 512 512" xml:space="preserve">
<path d="M256,64C149.961,64,64,149.961,64,256s85.961,192,192,192s192-85.961,192-192S362.039,64,256,64z M256,352
	c-32.882,0-57.405-13.377-70.224-30.096l17.835-21.457c11.983,13.933,31.489,22.571,51.273,22.571
	c24.523,0,38.735-11.425,38.735-28.423c0-18.393-14.491-26.474-41.242-26.474c-7.804,0-18.392,0.278-21.179,0.557v-29.538
	c3.064,0.278,13.933,0.278,21.179,0.278c22.014,0,38.455-7.524,38.455-24.522c0-16.999-16.999-25.916-37.619-25.916
	c-19.228,0-34.833,6.966-48.21,20.621l-16.719-20.343c14.491-16.998,37.061-29.26,67.993-29.26
	c40.128,0,66.879,18.949,66.879,49.881c0,25.08-21.178,39.57-40.127,42.636c17.835,1.95,43.193,16.44,43.193,45.143
	C326.224,329.428,299.192,352,256,352z"/>
</svg>
