<?xml version="1.0" encoding="utf-8"?>
<!-- Generator: Adobe Illustrator 16.0.0, SVG Export Plug-In . SVG Version: 6.00 Build 0)  -->
<!DOCTYPE svg PUBLIC "-//W3C//DTD SVG 1.1//EN" "http://www.w3.org/Graphics/SVG/1.1/DTD/svg11.dtd">
<svg version="1.1" id="Layer_1" xmlns="http://www.w3.org/2000/svg" xmlns:xlink="http://www.w3.org/1999/xlink" x="0px" y="0px"
	 width="512px" height="512px" viewBox="0 0 512 512" enable-background="new 0 0 512 512" xml:space="preserve">
<g>
	<path d="M256,239.698c11.426-1.95,35.112-8.638,35.112-25.916c0-15.884-15.048-24.801-35.112-24.801
		c-20.063,0-35.112,8.917-35.112,24.801C220.888,231.06,244.853,237.748,256,239.698z"/>
	<path d="M256,267.285c-11.703,1.672-38.176,10.033-38.176,29.26c0,16.441,16.998,26.474,38.176,26.474
		c20.621,0,38.177-10.032,38.177-26.474C294.177,277.318,267.426,268.957,256,267.285z"/>
	<path d="M256,64C149.961,64,64,149.961,64,256s85.961,192,192,192s192-85.961,192-192S362.039,64,256,64z M256,352
		c-38.176,0-71.338-17.834-71.338-51.275c0-23.406,19.228-40.405,41.799-47.929c-20.898-6.688-38.733-20.621-38.733-44.029
		c0-34.554,35.39-48.766,68.272-48.766s68.272,14.212,68.272,48.766c0,23.408-17.833,37.341-38.733,44.029
		c22.571,7.524,41.799,24.523,41.799,47.929C327.338,334.166,293.898,352,256,352z"/>
</g>
</svg>
