<?xml version="1.0" encoding="utf-8"?>
<!-- Generator: Adobe Illustrator 16.0.0, SVG Export Plug-In . SVG Version: 6.00 Build 0)  -->
<!DOCTYPE svg PUBLIC "-//W3C//DTD SVG 1.1//EN" "http://www.w3.org/Graphics/SVG/1.1/DTD/svg11.dtd">
<svg version="1.1" id="Layer_1" xmlns="http://www.w3.org/2000/svg" xmlns:xlink="http://www.w3.org/1999/xlink" x="0px" y="0px"
	 width="512px" height="512px" viewBox="0 0 512 512" enable-background="new 0 0 512 512" xml:space="preserve">
<path d="M256,64C149.961,64,64,149.961,64,256s85.961,192,192,192s192-85.961,192-192S362.039,64,256,64z M325.767,352h-136.98
	v-26.375c73.454-55.586,102.382-79.977,102.382-107.486c0-19.853-17.3-28.644-34.6-28.644c-22.122,0-38.854,8.791-51.049,22.404
	l-19.286-21.554C202.966,169.926,229.626,160,256.284,160c36.586,0,68.349,20.42,68.349,58.139
	c0,35.167-32.047,66.363-82.529,104.65h83.663V352z"/>
</svg>
