<?xml version="1.0" encoding="utf-8"?>
<!-- Generator: Adobe Illustrator 16.0.0, SVG Export Plug-In . SVG Version: 6.00 Build 0)  -->
<!DOCTYPE svg PUBLIC "-//W3C//DTD SVG 1.1//EN" "http://www.w3.org/Graphics/SVG/1.1/DTD/svg11.dtd">
<svg version="1.1" id="Layer_1" xmlns="http://www.w3.org/2000/svg" xmlns:xlink="http://www.w3.org/1999/xlink" x="0px" y="0px"
	 width="512px" height="512px" viewBox="0 0 512 512" enable-background="new 0 0 512 512" xml:space="preserve">
<g>
	<path d="M257.533,257.532c-15.885,0-31.489,8.36-40.686,21.736c1.673,20.063,12.818,43.75,41.242,43.75
		c24.522,0,37.342-17.556,37.342-32.325C295.432,267.844,277.597,257.532,257.533,257.532z"/>
	<path d="M256,64C149.961,64,64,149.961,64,256s85.961,192,192,192s192-85.961,192-192S362.039,64,256,64z M260.04,352
		c-54.617,0-76.632-44.308-76.632-96.14c0-53.503,28.145-95.86,81.927-95.86c22.851,0,40.686,8.081,53.225,20.621l-15.047,24.522
		c-9.754-10.032-20.622-16.162-38.178-16.162c-31.21,0-49.044,28.702-49.044,61.306c0,1.671,0,3.343,0,5.294
		c8.639-12.54,28.144-26.195,49.881-26.195c33.439,0,62.42,20.622,62.42,60.192C328.592,323.855,301.563,352,260.04,352z"/>
</g>
</svg>
