<?xml version="1.0" encoding="utf-8"?>
<!-- Generator: Adobe Illustrator 16.0.0, SVG Export Plug-In . SVG Version: 6.00 Build 0)  -->
<!DOCTYPE svg PUBLIC "-//W3C//DTD SVG 1.1//EN" "http://www.w3.org/Graphics/SVG/1.1/DTD/svg11.dtd">
<svg version="1.1" id="Layer_1" xmlns="http://www.w3.org/2000/svg" xmlns:xlink="http://www.w3.org/1999/xlink" x="0px" y="0px"
	 width="512px" height="512px" viewBox="0 0 512 512" enable-background="new 0 0 512 512" xml:space="preserve">
<path d="M256,64C149.961,64,64,149.961,64,256s85.961,192,192,192s192-85.961,192-192S362.039,64,256,64z M339.049,313.14
	L352,326.089l-25.908,25.909l-12.951-12.958L256,281.9l-57.144,57.14l-12.954,12.958L160,326.089l12.951-12.949l57.144-57.146
	l-57.144-57.14L160,185.902l25.902-25.904l12.954,12.954L256,230.091l57.141-57.139l12.951-12.954L352,185.902l-12.951,12.951
	l-57.147,57.14L339.049,313.14z"/>
</svg>
