<?xml version="1.0" encoding="utf-8"?>
<!-- Generator: Adobe Illustrator 16.0.0, SVG Export Plug-In . SVG Version: 6.00 Build 0)  -->
<!DOCTYPE svg PUBLIC "-//W3C//DTD SVG 1.1//EN" "http://www.w3.org/Graphics/SVG/1.1/DTD/svg11.dtd">
<svg version="1.1" id="Layer_1" xmlns="http://www.w3.org/2000/svg" xmlns:xlink="http://www.w3.org/1999/xlink" x="0px" y="0px"
	 width="512px" height="512px" viewBox="0 0 512 512" enable-background="new 0 0 512 512" xml:space="preserve">
<g>
	<path d="M253.631,188.98c-24.522,0-37.342,17.278-37.342,32.326c0,22.851,17.835,33.161,38.177,33.161
		c15.886,0,31.212-8.639,40.687-22.014C293.202,212.389,282.334,188.98,253.631,188.98z"/>
	<path d="M256,64C149.961,64,64,149.961,64,256s85.961,192,192,192s192-85.961,192-192S362.039,64,256,64z M246.665,352
		c-23.13,0-40.965-8.359-53.506-20.621l15.328-24.801c9.754,10.311,20.342,16.441,38.178,16.441
		c33.719,0,49.045-30.933,49.045-61.307c0-1.672,0-3.623-0.279-5.295c-8.36,12.54-27.865,25.916-49.882,25.916
		c-33.439,0-62.141-20.342-62.141-59.913c0-34.554,27.029-62.421,68.551-62.421c54.617,0,76.633,44.307,76.633,95.861
		C328.592,309.643,300.446,352,246.665,352z"/>
</g>
</svg>
