<?xml version="1.0" encoding="utf-8"?>
<!-- Generator: Adobe Illustrator 16.0.0, SVG Export Plug-In . SVG Version: 6.00 Build 0)  -->
<!DOCTYPE svg PUBLIC "-//W3C//DTD SVG 1.1//EN" "http://www.w3.org/Graphics/SVG/1.1/DTD/svg11.dtd">
<svg version="1.1" id="Layer_1" xmlns="http://www.w3.org/2000/svg" xmlns:xlink="http://www.w3.org/1999/xlink" x="0px" y="0px"
	 width="512px" height="512px" viewBox="0 0 512 512" enable-background="new 0 0 512 512" xml:space="preserve">
<g>
	<path fill="#C10005" d="M147.292,69.938c-0.808,0.114-3.144,1.374-8.018,4.357c3.13-1.417,6.665-3.269,6.532-2.407
		C147.222,70.593,148.083,69.798,147.292,69.938z"/>
	<path fill="#C10005" d="M145.805,71.888c-0.544,0.499-1.125,1.037-1.83,1.653c0.611-0.457,1.136-0.821,1.813-1.367
		C145.932,71.977,145.788,71.992,145.805,71.888z"/>
	<path fill="#C10005" d="M467.224,235.639c-0.111,0.029-0.22,0.064-0.322,0.115C467.021,235.778,467.129,235.739,467.224,235.639z"
		/>
	<path fill="#C10005" d="M223.902,167.08c0.655,0.021,1.092,0.035,1.092,0.035s-0.244-0.041-0.61-0.101
		c-0.388-0.068-0.828-0.122-1.266-0.176c-0.884-0.111-1.769-0.223-1.769-0.223l-2.766,0.569c0,0,1.576-0.031,3.152-0.062
		C222.524,167.106,223.312,167.091,223.902,167.08z"/>
	<polygon fill="#C10005" points="236.19,220.646 236.075,220.059 235.747,227.068 235.861,227.581 	"/>
	<path fill="#C10005" d="M218.863,168.091c1.034,0.006,2.055-0.091,3.021-0.091h1.835c-0.328-0.011-0.662-0.018-1.003-0.024
		c-4.189-0.057-9.792,0.001-13.215,0.12C210.955,168.236,214.974,168.083,218.863,168.091z"/>
	<path fill="#C10005" d="M224.156,168.017c0.05,0.001,0.099,0.007,0.149,0.01C224.255,168.023,224.206,168.02,224.156,168.017z"/>
	<polygon fill="#C10005" points="185.588,306.954 185.476,306.513 178,293.319 	"/>
	<path fill="#C10005" d="M298.476,173.257c-0.226,0.225-1.01,1.083-1.645,3.222c0,0-0.063,0.479-0.16,1.196
		c-0.012,0.36-0.027,0.781-0.043,1.232c0.007,0.373,0.014,0.771,0.021,1.168c0.031,1.573,0.063,3.147,0.063,3.147
		c-0.008-2.871,0.107-2.299,0.276-2.9c0.347,4.557-0.215,7.532-0.378,10.969c0.319-1.905,0.711-9.129,1.283-7.959
		c-0.033-0.841-0.066-1.684-0.099-2.502c-0.017-0.409-0.034-0.811-0.051-1.204c-0.021-0.384-0.036-0.773-0.026-1.206
		c0.006-1.664,0.339-3.086,0.612-4C298.609,173.508,298.745,173.047,298.476,173.257z"/>
	<path fill="#C10005" d="M392.827,191.241c0.242-0.383,0.499-0.793,0.729-1.151c0.354-0.636,0.771-1.389,1.234-2.221
		L392.827,191.241z"/>
	<path fill="#C10005" d="M363.287,167.739l5.404,0.261h12.605c-0.039,0-0.079-0.001-0.118-0.002
		c-2.131-0.007-3.026-0.044-3.133-0.105c-2.47-0.15-4.746-0.433-6.183-0.669C364.347,167.008,366.157,167.453,363.287,167.739z"/>
	<path fill="#C10005" d="M298.248,192.251l0.171-0.637c-0.114-0.552-0.204-1.756-0.285-3.149
		C298.022,189.58,297.955,190.818,298.248,192.251z"/>
	<polygon fill="#C10005" points="184.99,304.585 185.476,306.513 185.974,307.392 	"/>
	<path fill="#C10005" d="M298.297,185.326c-0.146-1.273-0.277-1.781-0.404-1.995c0.086,1.83,0.17,3.605,0.241,5.134
		C298.238,187.396,298.38,186.401,298.297,185.326z"/>
	<path fill="#C10005" d="M226.239,168.357c-0.067-0.021-0.137-0.038-0.208-0.057C226.102,168.318,226.17,168.338,226.239,168.357z"
		/>
	<path fill="#C10005" d="M297.407,269.917c-0.197,2.547-0.955,5.653-1.679,8.353c-0.386,1.346-0.671,2.616-0.928,3.671
		c-0.254,1.056-0.372,1.923-0.272,2.5c0,0,0.211-0.647,0.526-1.62c0.341-0.967,0.692-2.283,1.043-3.603
		c0.178-0.66,0.355-1.319,0.522-1.938c0.138-0.625,0.266-1.209,0.376-1.709c0.216-1.003,0.36-1.671,0.36-1.671
		c0.008-0.862,0.183-2.284,0.282-3.277C297.742,269.628,297.771,269.067,297.407,269.917z"/>
	<path fill="#C10005" d="M329.554,168h5.98c-0.854,0-3.78-0.354-6.25-0.385C329.684,167.725,329.357,168,329.554,168z"/>
	<path fill="#C10005" d="M465.27,228.728c-0.603-2.292-1.198-4.562-1.789-6.814c-0.282-1.124-0.563-2.244-0.843-3.358
		c-0.328-1.103-0.654-2.202-0.98-3.297c-0.626-2.189-1.248-4.363-1.866-6.526c-0.699-2.136-1.394-4.26-2.086-6.376
		c-0.337-1.059-0.672-2.116-1.006-3.171l-1.142-3.116c-0.749-2.077-1.494-4.148-2.239-6.219l-2.487-6.112l-1.236-3.062
		c-0.43-1.013-0.913-2.005-1.368-3.011c-0.917-2.006-1.838-4.018-2.761-6.038c-0.991-1.987-2.037-3.957-3.061-5.952
		c-0.515-0.995-1.03-1.994-1.548-2.996c-0.565-0.975-1.133-1.954-1.702-2.936c-1.149-1.957-2.306-3.927-3.474-5.915
		c-1.269-1.923-2.549-3.862-3.842-5.82c-1.258-1.981-2.692-3.868-4.128-5.783c-0.718-0.957-1.439-1.918-2.167-2.886l-1.095-1.451
		l-1.179-1.402c-6.034-7.746-15.061-17.48-15.217-19.615c4.829,4.356,2.277,0.015,6.476,3.44c-5.311-4.704-6.445-4.064-7.97-4.146
		c-0.759-0.042-1.601-0.27-3.175-1.324c-0.78-0.534-1.731-1.288-2.926-2.351c-0.598-0.532-1.256-1.141-1.983-1.839
		c-0.364-0.35-0.748-0.72-1.153-1.11c-0.417-0.377-0.856-0.774-1.318-1.193c0,0,1.3-0.485,2.599-0.969
		c1.313-0.489,2.602-0.926,2.602-0.926c-4.79-0.774-9.169-5.06-14.453-9.683c-2.548-2.422-5.463-4.717-8.45-6.962
		c-1.482-1.14-3.087-2.115-4.727-3.001c-1.636-0.892-3.313-1.689-5.026-2.342c-1.687-2.207-0.365-2.311,2.583-1.059
		c1.474,0.622,3.355,1.574,5.467,2.742c1.071,0.562,2.133,1.279,3.248,2.006c1.111,0.732,2.257,1.507,3.413,2.308
		c-2.492-2.005-4.479-3.484-6.296-4.478c-1.819-0.993-3.363-1.66-4.848-2.259c-1.479-0.595-2.882-1.159-4.512-1.814
		c-1.623-0.654-3.408-1.491-5.588-2.767c0,0,2.604,0.3,5.207,0.6c2.647,0.269,5.231,0.746,5.231,0.745
		c-2.799-0.689-5.314-1.494-7.459-2.654c-2.165-1.121-3.991-2.548-5.73-3.862c-3.438-2.688-6.057-5.857-8.675-7.685
		c-0.55,0.306,0.164,1.773-0.548,2.423c-0.354,0.326-1.061,0.45-2.446,0.129c-0.692-0.161-1.556-0.433-2.631-0.847
		c-1.08-0.4-2.343-1.012-3.931-1.633c-5.252-2.637-2.08-2.514-3.153-3.567c-0.539,0.336-2.129,0.486-4.619,0.158
		c-2.525-0.24-5.976-0.863-10.236-2.255c-1.158-1.854,6.303-0.068,7.348-1.214c-6.514-2.244-11.992-3.37-16.515-5.851
		c-6.091-0.814-5.99-0.277-5.352,0.429c0.646,0.708,1.83,1.585-1.917,1.493c-2.219-0.646-3.897-1.212-5.172-1.612
		c-1.267-0.434-2.104-0.83-2.621-1.198c-1.035-0.737-0.791-1.366-0.165-1.989c1.239-1.249,4.064-2.461,0.866-4.527
		c1.814,0.08,3.702,0.162,5.614,0.329c1.9,0.223,3.837,0.474,5.781,0.741c1.938,0.292,3.909,0.497,5.812,0.897
		c1.908,0.39,3.794,0.775,5.627,1.15c3.693,0.693,7.094,1.664,10.104,2.415c1.51,0.37,2.909,0.713,4.17,1.022
		c1.25,0.347,2.366,0.652,3.329,0.882c0,0-0.415-0.145-1.143-0.397c-0.731-0.238-1.75-0.649-3.024-0.999
		c-2.527-0.743-5.896-1.733-9.267-2.723c-3.409-0.823-6.817-1.646-9.373-2.264c-1.271-0.328-2.354-0.51-3.105-0.654
		c-0.753-0.143-1.183-0.224-1.183-0.224c1.023-0.601-3.437-2.351-6.347-3.729c-1.449-0.705-2.532-1.183-2.29-1.522
		c0.12-0.16,0.567-0.264,1.458-0.293c0.888-0.01,2.206,0.113,4.084,0.338c-13.708-3.841-29.489-5.754-45.038-5.56
		c-15.562,0.141-30.868,2.354-44.045,5.454c1.938-0.061,4.129-0.221,5.755-0.222c1.628,0.014,2.701,0.267,2.377,0.811
		c-13.511,3.22-12.346,1.055-15.406,0.521c-4.932,1.732-6.939,3.152-8.377,4.696c-1.434,1.553-2.347,3.083-5.037,4.93
		c-1.294,0.221-2.519,0.43-3.681,0.629c-1.146,0.265-2.232,0.517-3.265,0.755c-2.064,0.493-3.916,0.96-5.615,1.404
		c-1.711,0.41-3.217,0.949-4.659,1.407c-1.441,0.469-2.797,0.91-4.129,1.344c-2.695,0.81-5.228,1.758-8.238,2.7
		c-1.505,0.471-3.127,0.949-4.935,1.447c-1.775,0.567-3.725,1.179-5.934,1.828l2.27,1.992c-6.202,1.803-9.081,4.199-12.046,6.532
		c-0.74,0.588-1.485,1.182-2.271,1.807c-0.771,0.646-1.594,1.303-2.52,1.973c-0.925,0.671-1.954,1.355-3.137,2.06
		c-1.17,0.723-2.551,1.383-4.035,2.227c-0.464-0.011,0.214-0.994,1.507-2.192c1.277-1.22,3.082-2.785,4.687-4.201
		c-2.438,1.836-4.321,3.005-5.932,3.848c-1.58,0.887-2.87,1.472-4.169,2.037c-2.569,1.163-5.235,2.207-9.555,6.385
		c0,0,1.392-2.087,2.784-4.176c1.448-2.039,2.96-4.053,2.96-4.053c-0.968,0.718-1.993,1.478-3.037,2.252
		c-1.038,0.782-2.033,1.661-3.044,2.479c-2.008,1.658-3.953,3.249-5.594,4.492c-3.177,2.605-5.186,3.807-4.17,1.151
		c-1.342,1.693-2.873,3.458-4.55,5.281c-1.619,1.887-3.353,3.868-5.208,5.881c-0.912,1.022-1.908,1.998-2.82,3.09
		c-0.933,1.069-1.881,2.156-2.842,3.257c-0.968,1.091-1.949,2.196-2.938,3.31c-1.013,1.091-1.916,2.3-2.891,3.454
		c-0.96,1.165-1.925,2.337-2.893,3.511c-0.971,1.17-1.947,2.339-2.837,3.574c-1.823,2.438-3.643,4.863-5.394,7.272
		c-1.653,2.483-3.258,4.937-4.776,7.332c-0.375,0.602-0.764,1.187-1.112,1.792c-0.34,0.61-0.676,1.215-1.008,1.813
		c-0.66,1.2-1.295,2.381-1.9,3.54l-1.3-2.478c-0.425,1.346-1.079,2.875-1.902,4.541c-0.826,1.664-1.683,3.549-2.715,5.486
		c-0.517,0.968-1.05,1.965-1.595,2.985c-0.55,1.016-1.142,2.036-1.657,3.117c-1.079,2.134-2.187,4.323-3.289,6.503
		c-1.149,2.156-2.069,4.411-3.014,6.558c-0.912,2.162-1.826,4.23-2.502,6.223c-1.312,4.004-2.18,7.49-2.2,9.96l-1.44,1.163
		c0,0-0.237,1.336-0.593,3.341c-0.175,0.998-0.38,2.163-0.6,3.41c-0.216,1.246-0.471,2.563-0.615,3.911
		c-0.333,2.667-0.666,5.334-0.916,7.335c-0.117,0.997-0.236,1.82-0.283,2.405c-0.043,0.585-0.069,0.92-0.069,0.92
		c-2.435,9.252-5.284,5.326-4.464,6.291c-0.573,2.6-0.889,5.175-1.281,7.663c-0.191,1.245-0.379,2.472-0.565,3.683
		c-0.188,1.21-0.389,2.4-0.494,3.589c-0.267,2.367-0.526,4.668-0.778,6.908c-0.121,1.12-0.285,2.22-0.373,3.312
		c-0.083,1.092-0.166,2.169-0.247,3.231c-0.184,2.123-0.363,4.188-0.537,6.196c-0.113,1.003-0.17,1.995-0.214,2.974
		c-0.058,0.979-0.115,1.944-0.172,2.896c-0.123,1.904-0.262,3.758-0.419,5.563c-0.04,0.451-0.08,0.9-0.12,1.346
		c-0.022,0.445-0.043,0.888-0.065,1.328c-0.052,0.88-0.104,1.749-0.154,2.605c0.837,0.847,1.555,2.869,2.174,5.684
		c0.298,1.404,0.639,3.008,1.012,4.766c0.351,1.756,0.687,3.663,1.01,5.679c0.28,2.019,0.726,4.129,1.13,6.305
		c0.405,2.176,0.8,4.414,1.184,6.672c0.479,2.241,0.962,4.502,1.44,6.738c0.467,2.235,0.897,4.449,1.481,6.56
		c0.536,2.579,1.074,5.165,1.612,7.756c0.634,2.568,1.336,5.128,2.014,7.699c0.359,1.28,0.649,2.582,1.07,3.847l1.228,3.807
		l1.24,3.813l0.629,1.905l0.717,1.876c0.964,2.5,1.929,5.004,2.894,7.511c1.046,2.475,2.174,4.918,3.267,7.379
		c1.055,2.48,2.31,4.866,3.541,7.268c1.248,2.393,2.408,4.834,3.812,7.146l4.077,7.008l4.426,6.799
		c1.429,2.298,3.107,4.426,4.674,6.63l2.39,3.274c0.799,1.091,1.682,2.117,2.521,3.176c5.319,6.812,11.165,13.182,17.321,19.177
		c37.849,38.04,90.347,61.609,148.381,61.609c1.603,0,3.199-0.025,4.793-0.061c0.015,0.263,0.692,0.54,1.795,0.824
		c2.242,0.547,6.279,1.034,10.031,1.506c0-0.001,1.655-0.89,3.272-1.926c0.924-0.576,1.838-1.145,2.456-1.53
		c7.071-0.748,14.037-1.85,20.88-3.284c0.471,0.473,0.645,0.973-0.107,1.569c0,0,1.08-0.424,2.699-1.061
		c0.805-0.317,1.745-0.687,2.751-1.084c0.501-0.199,1.018-0.406,1.544-0.616c0.519-0.234,1.045-0.473,1.572-0.712
		c0.077-0.034,0.151-0.069,0.229-0.104c8.503-2.165,16.798-4.85,24.848-8.018c0.032-0.006,0.059-0.009,0.091-0.015
		c1.372-0.443,2.53-0.801,3.448-1.215c0.922-0.407,1.641-0.771,2.183-1.091c0.08-0.048,0.149-0.093,0.222-0.138
		c12.991-5.584,25.298-12.442,36.765-20.417c0.659-0.42,1.32-0.841,1.995-1.271c0.889-0.553,1.791-1.113,2.704-1.682
		c0.888-0.606,1.787-1.22,2.696-1.841c1.827-1.234,3.695-2.496,5.598-3.78c1.846-1.364,3.724-2.754,5.626-4.161
		c0.948-0.709,1.923-1.398,2.867-2.138c0.928-0.757,1.861-1.519,2.8-2.283c0.938-0.766,1.88-1.535,2.824-2.307
		c0.94-0.779,1.912-1.529,2.805-2.371c1.817-1.652,3.644-3.312,5.47-4.971c14.352-13.55,26.32-29.869,31.441-43.96
		c0.903-1.048,1.786-2.221,2.648-3.474c0.843-1.264,1.751-2.56,2.469-3.984c1.489-2.819,2.946-5.754,4.229-8.544
		c1.208-2.827,2.357-5.455,3.494-7.565c1.131-2.113,2.093-3.777,3.224-4.555c0.519-1.221,1.027-2.419,1.527-3.596
		c0.246-0.59,0.49-1.176,0.733-1.755c0.224-0.586,0.422-1.176,0.63-1.757c0.822-2.327,1.595-4.58,2.325-6.769
		c0.387-1.088,0.686-2.184,0.97-3.265c0.287-1.08,0.569-2.145,0.847-3.193c0.271-1.051,0.534-2.085,0.797-3.107
		c0.261-1.021,0.519-2.028,0.69-3.044c1.626-8.063,2.533-15.423,2.912-22.741c0.151-3.664,0.414-7.289,0.323-11.017
		c0.002-1.855,0.004-3.731,0.007-5.64c0.022-0.95-0.015-1.912-0.063-2.883c-0.037-0.969-0.075-1.947-0.114-2.937
		c-0.059-1.975-0.118-3.991-0.18-6.064c-0.138-2.066-0.28-4.189-0.426-6.378c-0.152-4.379-0.744-8.991-1.1-13.979
		c-0.06-2.922,0.358-3.687,0.938-3.973c-0.013-0.002-0.022,0-0.034-0.003C466.307,233.381,465.774,231.042,465.27,228.728z
		 M172.02,287.921l-4.153-7.656l4.916,8.513L172.02,287.921z M183.99,309.039l4.364,7.458l1.759,3.674L183.99,309.039z
		 M202.263,338.913l1.486,4.669C201.06,338.429,201.755,337.932,202.263,338.913z M215.981,361.563l1.029-0.145l2.853,5.771
		C216.418,361.192,217.602,364.672,215.981,361.563z M236.555,399.178l-4.374-7.47c-1.606-3.083,1.66,2.274,2.583,3.74
		C235.316,396.503,236.758,398.968,236.555,399.178z M334.7,291.846c1.883-2.462,4.547-7.278,5.248-8.565
		c0.062-0.113,0.115-0.212,0.18-0.33c0,0-0.067,0.124-0.18,0.33c-6.797,12.495,2.43-2.509,3.339-3.406
		C338.475,287.825,337.958,287.594,334.7,291.846z M369.216,233.029c-0.824,1.454-1.792,2.993-3.373,5.155
		C366.793,236.868,367.934,235.128,369.216,233.029c1.437-2.531,2.435-4.799,5.635-9.896
		C372.758,227.026,370.847,230.364,369.216,233.029z M374.641,225.521c1.449-2.495,1.565-3.711,3.087-5.542
		C380.163,217.246,376.09,223.026,374.641,225.521z M402.412,174.335c-0.189,1.328-0.8,2.608-1.457,3.706
		c-2.607,4.386-5.255,8.743-7.398,12.049c-0.915,1.627-1.438,2.519-1.34,2.199l-8.048,13.817l-0.021,1.124
		c-1.21,1.393-3.055,4.345-5.026,7.542l-2.702,4.639c0.195-0.198,0.363-0.336,0.538-0.485c0.973-1.46,1.878-2.734,2.671-3.689
		c-1.595,2.75-2.169,3.285-2.671,3.689c-0.971,1.464-2.027,3.148-3.149,4.968l-11.219,19.262c0.752-0.895,1.153-1.331-0.318,1.983
		c-5.286,9.463-6.213,10.255-8.366,12.928l-2.66,4.566c-0.161,0.694,0.127,0.699,0.921-0.081c-4.813,7.811-9.82,15.85-14.833,23.966
		l-0.824,1.416c-2.969,5.1-7.836,13.439-10.812,18.537l-2.958,5.063c0.613-0.887,1.214-1.778,1.8-2.723
		c0.77-1.325,1.496-2.601,2.012-3.619c-0.631,1.309-1.313,2.489-2.012,3.619c-1.841,3.171-3.696,6.24-2.426,5.018
		c-1.853,3.027-3.073,4.599-4.151,5.883l-3.708,6.346c1.034-1.22-5.081,8.344-3.101,6.709c-1.627,1.222-4.978,8.437-8.797,14.323
		c-0.649,2.801,7.612-11.726,5.265-6.57c-6.903,11.408-17.369,26.232-25.809,41.294c0.897-0.869,2.982-4.336,3.43-4.771
		c-2.08,3.381-4.52,6.982-6.942,10.558l-9.499,16.26c2.751-3.888,5.788-8.233,8.633-12.331c0.765-1.294,1.315-2.043,1.815-2.627
		c2.134-3.111,4.155-6.061,5.689-8.298c-3.431,6.478-4.312,6.694-5.689,8.298c-0.606,0.878-1.208,1.748-1.815,2.627
		c-0.744,1.265-1.678,3.023-2.998,5.762l2.616-3.255c-6.813,12.044-6.493,8.456-11.031,14.678l-3.544,7.771
		c-0.846,1.698-2.411,3.779-4.496,4.527c-1.033,0.401-2.177,0.496-3.247,0.25c-1.071-0.24-2.06-0.775-2.889-1.483
		c-0.803-0.712-1.546-1.607-2.025-2.438c-0.506-0.823-0.912-1.578-1.361-2.362c-0.861-1.558-1.705-3.085-2.527-4.574
		c-2.702-4.989-5.026-9.629-6.883-13.692l-6.413-10.994c-0.562-0.729-0.759-0.731-0.241,0.64c2.949,7.166,4.112,10.606,11.942,24.1
		c1.74,1.514-5.153-10.487-2.783-6.549c1.536,2.793,3.874,6.591,6.086,10.3c0.549,0.931,1.093,1.853,1.621,2.748
		c0.12,0.216,0.285,0.469,0.438,0.71c0.167,0.244,0.281,0.476,0.487,0.723c0.369,0.495,0.759,0.956,1.191,1.363
		c0.853,0.814,1.806,1.434,2.774,1.795c0.975,0.348,1.926,0.445,2.763,0.421c0,0-0.331,0.024-0.909,0.067
		c-0.575-0.031-1.418-0.087-2.339-0.479c-0.923-0.36-1.93-0.999-2.79-1.914c-0.887-0.896-1.609-2.058-2.077-2.907
		c-2.087-3.62-4.173-7.241-4.173-7.241c-0.448,0.356,0.415,1.859,1.515,3.627c0.551,0.885,1.161,1.835,1.696,2.742
		c0.546,0.916,0.947,1.724,1.366,2.597c-0.226-0.244-0.477-0.536-0.7-0.816c-0.197-0.253-0.396-0.523-0.599-0.81
		c-0.405-0.573-0.82-1.212-1.246-1.899c-0.851-1.374-1.739-2.945-2.655-4.586c-1.831-3.282-3.769-6.843-5.719-9.67l0.528,1.011
		c-6.497-11.547-5.813-9.931-12.083-21.65c0.499-1.161,2.81,3.567,6.322,8.781c-10.752-18.481-23.762-44.62-36.177-62.361
		l5.69,11.512c-4.206-6.849-10.433-19.395-11.172-18.076c4.973,7.708,2.293,4.698,4.455,8.84l0.378,0.425
		c0.535,1.023,2.135,4.093,0.877,2.281c-2.884-6.341-8.34-16.18-11.893-23.074c1.464,3.073-2.516-2.934-3.15-3.634
		c-3.627-6.64,0.448-0.354,1.053-0.103c-2-3.532-4.643-9.501-6.919-12.044c-3.346-4.597,2.997,6.35,3.485,8.19l-10.591-19.993
		l0.156,0.601c-0.708-1.655-2.315-4.737-3.622-6.636c-1.52-1.699,1.016,2.857,2.843,5.754c-6.574-9.901-9.187-18.738-15.481-26.741
		l1.485,2.94c-0.939-1.491-1.455-2.486-1.628-3.116c0.036,0.043,0.099,0.121,0.143,0.176l-2.969-5.899
		c-0.402-0.462-1.154-1.296-0.625-0.281l-2.843-5.754c-5.765-10.742-2.494-2.358-4.74-5.748l0.31,0.517
		c0.699,1.084,1.435,2.296,2.086,3.465l-2.086-3.465c-2.01-3.13-3.773-5.338-2.573-3.038l-5.918-11.344l0.011,0.063
		c0.366,0.967,0.522,1.607,0.071,1.312l-0.071-1.312c-1.78-4.704-11.062-21.008-9.648-21.568c-1.811-2.871-3.405-5.058-2.841-3.653
		c0.082,0.148,0.215,0.387,0.295,0.531c0.733,1.196,1.289,2.231,2.272,4.111c-0.99-1.79-1.68-3.04-2.272-4.111
		c-0.108-0.185-0.182-0.309-0.285-0.485c-0.019-0.041,0.008-0.005-0.01-0.046c-4.691-8.224,0.12,2.522-7.383-10.789
		c-0.22,0.186,0.688,1.621,1.776,3.704c-2.047-3.448-2.774-4.896-2.973-5.552c-0.14,0.082-0.456-0.091-1.101-0.734
		c0.222-0.179-0.491-1.62-1.487-3.379c-0.253-0.438-0.52-0.897-0.791-1.364c-0.125-0.199-0.313-0.563-0.467-0.849
		c-0.161-0.299-0.322-0.6-0.464-0.971c-0.614-1.395-0.9-2.862-0.861-4.062c0,0-0.017,0.116-0.046,0.32
		c-0.033,0.205-0.072,0.499-0.065,0.857c-0.028,0.716,0.052,1.699,0.297,2.682c0.121,0.493,0.263,1.005,0.407,1.377
		c0.142,0.383,0.273,0.741,0.386,1.048c0.177,0.48,0.294,0.8,0.294,0.8c-0.189-0.439-0.371-0.859-0.548-1.271
		c-0.221-0.524-0.438-0.991-0.63-1.625c-0.41-1.181-0.62-2.418-0.625-3.761c0.011-1.336,0.298-2.834,1.218-4.284
		c0.919-1.431,2.48-2.797,4.772-3.491c0,0-0.096,0.019-0.266,0.052c-0.171,0.03-0.411,0.084-0.69,0.18
		c-0.28,0.092-0.614,0.193-0.959,0.332c-0.335,0.156-0.694,0.331-1.049,0.516c-0.334,0.214-0.666,0.44-0.974,0.659
		c-0.286,0.242-0.545,0.482-0.768,0.689c-0.42,0.435-0.665,0.765-0.665,0.765c1.133-1.71,2.525-2.544,3.59-3.037
		c1.092-0.483,1.93-0.61,2.514-0.702c1.187-0.088,1.478,0.02,1.778,0.124c0.159,0.049,0.338,0.092,0.644,0.12
		c0.148,0.009,0.327,0.02,0.55,0.034c0.176,0.015,0.388,0.027,0.645,0.035c1.028,0.031,2.783,0,5.924-0.132
		c0,0-2.856,0.146-5.713,0.291c-0.371,0.021-0.743,0.041-1.108,0.062c-0.455,0.042-0.869,0.063-1.325,0.134
		c-0.467,0.087-0.92,0.165-1.334,0.279c-0.412,0.128-0.799,0.25-1.146,0.382c-0.683,0.299-1.223,0.584-1.569,0.838
		c-0.363,0.226-0.541,0.39-0.541,0.39c1.836-1.321,3.939-1.623,5.383-1.649c0.775-0.019,1.237,0.021,1.725,0.05
		c0.477,0.039,0.906,0.058,1.293,0.09c1.548,0.15,2.427,0.305,3.073,0.502c1.292,0.395,1.655,0.77,4.591,1.048
		c11.081,0.749,24.119,0.238,34.358,0.238h8.404c0.287,0,0.891-0.236,2.737-0.477c-8.706-0.267-13.337-0.363-17.511-1.262
		c-16.905-0.936-4.249,2.328-22.919,0.882c0.995-0.792,6.771-0.802,12.029-0.415c0.473-0.679-5.95-1.121-10.009-1.456
		c10.726,0.37,26.053-0.491,32.734-0.391c-0.145-0.015-0.353-0.036-0.522-0.053l1.159,0.056c-0.214-0.001-0.442-0.002-0.637-0.003
		c3.253,0.361,11.656,0.857,15.437,0.659c0.125-0.09,0.607-0.183,1.94-0.285c-0.194,0.153-0.94,0.233-1.94,0.285
		c-0.522,0.516,16.203,0.896,10.975,1.964c11.557,0.268,7.253-1.481,18.412-0.253c-4.199-0.899,7.373-0.634,2.632-1.419
		c-3.875,0.798-16.218-0.486-22.073-1.044l16.675-0.476c-4.059,0.232,1.826,0.79,4.144,0.899l2.214-0.738
		c0.641,0.451,2.787,0.596,5.776,0.592c0.747-0.009,1.547-0.018,2.39-0.028c0.21-0.004,0.424-0.009,0.64-0.014
		c0.213-0.005,0.418-0.014,0.731-0.002c0.574,0.011,1.161,0.024,1.752,0.116c2.375,0.276,4.836,1.236,6.95,2.83
		c1.057,0.799,2.002,1.776,2.824,2.866c0.814,1.099,1.446,2.349,1.906,3.654c0.449,1.315,0.65,2.697,0.689,4.048
		c0.002,0.98,0.004,1.94,0.006,2.871c-0.031,3.716-0.228,6.953-0.749,9.047c0.053-2.589-0.078-5.02-0.102-7.115
		c-0.012-1.048,0.002-2.012,0.08-2.871c0.039-0.43,0.093-0.833,0.167-1.206c0.072-0.388,0.179-0.666,0.27-1.143
		c-0.104-1.638-0.523-2.765-0.815-3.524c-0.338-0.748-0.598-1.144-0.753-1.313c-0.34-0.324-0.245,0.224-0.166,0.957
		c0.109,0.724,0.141,1.648,0.04,2.039c-0.135,0.406-0.24,0.255-0.755-0.946c0.297,1.041,0.372,2.18,0.372,3.293
		c-0.024,1.001-0.049,2.03-0.075,3.082c-0.039,2.104-0.057,4.3-0.063,6.563c0.014,4.525,0.029,9.312,0.043,14.137
		c0.036,9.65-0.006,19.456-0.672,27.632c0.56-2.97,0.491-10.437,1.228-11.158c0.207,6.034-0.109,12.712-0.559,19.627
		c-0.224,3.452-0.457,6.977-0.828,10.523c-0.34,2.509-0.741,5.004-1.274,7.448c-0.142,0.869-0.307,1.725-0.484,2.574l1.197-1.936
		c-0.399,1.438-0.667,2.591-0.943,3.514c-0.294,0.919-0.508,1.628-0.667,2.202c-0.295,1.155-0.482,1.739-0.61,2.377
		c-0.151,0.63-0.242,1.318-0.685,2.568c-0.235,0.619-0.544,1.385-0.961,2.363c-0.406,0.983-1.079,2.105-1.839,3.529
		c0.134-0.539,0.663-2.207-0.74,0.379c-0.676,1.114-1.181,1.97-1.554,2.627c-0.398,0.642-0.687,1.069-0.853,1.378
		c-0.341,0.61-0.269,0.688-0.126,0.679c0.142-0.01,0.354-0.107,0.287,0.16c-0.034,0.135-0.138,0.36-0.357,0.735
		c-0.214,0.379-0.547,0.904-1.102,1.586c-2.363,2.366-3.949,3.646-4.936,4.732c-1.07,0.996-1.629,1.7-2.258,2.498
		c-0.611,0.82-1.39,1.61-2.795,2.898c-0.693,0.658-1.62,1.33-2.781,2.163c-0.292,0.206-0.598,0.422-0.92,0.648
		c-0.307,0.208-0.443,0.312-0.734,0.479c-0.54,0.313-1.13,0.654-1.778,1.028c0,0,0.272-0.076,0.544-0.153
		c0.258-0.067,0.515-0.134,0.515-0.134c-0.486,0.28-0.981,0.566-1.484,0.856c-0.045,0.042-0.167,0.066-0.149,0.123l0.098,0.183
		l0.199,0.369c0.138,0.25,0.276,0.501,0.416,0.754c0.292,0.511,0.588,1.028,0.888,1.552c0.405,0.685,0.815,1.377,1.229,2.075
		c1.83,3.056,3.79,6.189,5.786,9.337c3.992,6.295,8.131,12.644,11.672,18.531c-0.738-0.813-5.783-9.891-5.926-8.339l8.52,15.13
		c0.738,0.813,4.564,7.244,2.644,2.951c-1.087-2.085-2.393-3.983-3.29-5.401l1.535,1.726c7.724,14.218-1.659-0.145-2.319,0.407
		c4.575,7.263,5.4,10.354,8.274,15.269c0.471,0.385,0.38-0.1,0.117-0.836c-0.133-0.37-0.313-0.81-0.502-1.259
		c-0.095-0.224-0.194-0.455-0.292-0.687c-0.117-0.262-0.233-0.524-0.347-0.777c-0.902-2.032-1.505-3.568,0.746-0.615
		c0.18,0.266,0.385,0.567,0.612,0.903c0.146,0.222,0.307,0.464,0.479,0.726c0.334,0.524,0.695,1.126,1.082,1.799
		c0.192,0.341,0.393,0.696,0.599,1.062c0.325-0.187,0.676-0.446,1.029-0.671c0.733-0.473,1.494-0.962,2.258-1.454
		c1.125-0.723,2.254-1.449,3.354-2.156c1.104-0.778,2.176-1.534,3.183-2.244c2.026-1.405,3.819-2.59,5.094-3.344
		c1.249-1.74,3.355-4.04,5.853-6.479c1.282-1.188,2.479-2.585,3.778-3.908c1.289-1.331,2.591-2.674,3.849-3.974
		c4.704-5.22,8.292-10.163,8.009-10.945c0.122-0.034,0.548-0.401,1.146-1.044c0.78-0.852,1.792-2.227,2.81-3.899l-1.626,1.676
		c3.037-5.011,4.69-7.341,6.188-9.173c0.762-0.906,1.414-1.72,2.068-2.723c0.646-1.005,1.38-2.161,2.022-3.872
		c-0.148-0.015-0.48,0.48-0.873,1.094c-0.41,0.606-0.91,1.315-1.323,1.762c3.369-7.099,5.864-12.695,7.827-18.534
		c1.914-5.825,3.281-11.957,3.043-19.829c-0.197,0.587-0.331,1.143-0.382,2.809c-0.198,0.595-0.011-2.128,0.379-7.4
		c0,0,0.158,1.435,0.271,2.845c0.108,1.411,0.216,2.822,0.216,2.822c0.251-1.028,0.436-2.153,0.568-3.358
		c0.105-1.211,0.153-2.499,0.164-3.85c0.02-2.702-0.117-5.656-0.296-8.763c-0.355-6.215-0.875-13.043-0.63-19.689
		c-0.338,1.239-0.381,11.029-0.841,5.865c-0.013-8.606,1.91-7.756,0.989-18.004c-0.219,4.646-1.117,3.238-1.298,7.646
		c-0.125-6.641-0.654-11.323,0.04-13.765c-0.062-1.791-0.322-2.558-0.531-2.681c-0.071,0.569-0.15,1.166-0.254,1.601
		c-0.081-1.025,0.062-1.605,0.248-1.606c-0.003-0.001-0.005-0.004-0.007-0.005c0.535-4.318,0.144-11.159-0.014-15.666l-0.364,1.159
		c0.898-4.181,0.868-7.634,0.679-11.414l-0.146-0.713L296,178.966v-0.449c0-0.302,0.221-0.607,0.223-0.914
		c0.029-0.307,0.277-0.616,0.309-0.928c0.161-1.243,0.473-2.541,1.063-3.798c1.131-2.511,3.246-5.024,6.501-6.468
		c0,0-0.576,0.123-1.154,0.292c-0.57,0.2-1.141,0.4-1.141,0.4c1.307-0.81,2.936-1.496,4.797-1.846
		c0.929-0.176,1.913-0.257,2.927-0.247c0.794,0.024,1.618,0.05,2.468,0.076c3.33,0.087,7.068,0.054,11.014-0.32l-4.124-0.617
		c6.423,0.443,18.372-0.535,23.735,0.418c2.283-0.173-5.95-1.124,4.417-1.197c2.403,0.394,10.482,0.776,13.288,0.207
		c-0.025-0.282-1.254-0.62-4.06-0.331c-1.746,0.058-0.622,0.111,0.015,0.281l-3.537-0.446c8.005-0.465,6.442,0.44,14.965,0.144
		c1.711-0.342-2.886-0.561-4.14-0.899l31.924,1.083c0.632,0.451-3.343,0.683-0.447,1.243l-10.855,0.183
		c-5.104,0.745,5.885,0.831,10.507,1.052l-7.492,0.054c-0.373,0.077-0.194,0.143,0.508,0.182l-5.642-0.1
		c11.933,0.786-4.516,1.588-4.021,1.872c1.027,0.063,2.083,0.103,3.133,0.105c0.276,0.001,0.566,0.002,0.885,0.002h13.426
		c0.22,0,0.434,0.015,0.643,0.038c-0.271-0.064-0.488-0.123-0.643-0.207c1.018,0.02,2.174,0.127,3.298,0.526
		c1.117,0.391,2.209,1.113,2.911,2.195C402.427,171.622,402.616,173.02,402.412,174.335z M235.826,243.147
		c0.281,0.694,0.416,1.718,0.41,3.006c-0.006,1.279-0.039,2.777-0.241,4.358c-0.08,0.791-0.162,1.604-0.245,2.421
		c-0.118,0.815-0.232,1.636-0.322,2.45c-0.136,1.633-0.405,3.207-0.382,4.673c-0.287,0.284-0.305-0.376-0.166-1.579
		c0.057-0.604,0.208-1.337,0.286-2.171c0.094-0.832,0.198-1.755,0.307-2.722C235.864,249.73,235.97,245.142,235.826,243.147z
		 M296.59,222.418c0.028,1.478,0.042,3.025,0.015,4.657C296.532,224.961,296.545,223.568,296.59,222.418z M297.019,239.134
		l-0.207,13.253C296.457,242.119,296.809,249.521,297.019,239.134z M388.978,166.191c-0.538,0.018-0.945,0.009-1.269-0.009
		L388.978,166.191z"/>
	<path fill="#C10005" d="M267.658,329.875c-0.413,0.406-2.455,2.414-4.405,4.333c-2.007,1.859-4.08,3.459-4.301,3.308l-1.463,2.46
		c1.461-1.408,3.022-2.727,4.288-3.715c2.262-2.111,4.413-4.232,6.422-6.335C268.284,329.715,268.14,329.68,267.658,329.875z"/>
	<path fill="#C10005" d="M194.237,319.893c0.073,0.151,0.144,0.299,0.221,0.456c-0.034-0.083-0.057-0.149-0.072-0.201
		L194.237,319.893z"/>
	<path fill="#C10005" d="M244.146,349.043l-0.928,0.699c-0.274,0.215-0.547,0.43-0.815,0.641c-1.079,0.862-2.143,1.764-2.962,2.502
		c-0.06,0.086-0.075-0.029-0.111-0.046l-0.091-0.109c-0.061-0.069-0.117-0.134-0.169-0.194c-0.106-0.119-0.2-0.215-0.275-0.282
		c-0.152-0.135-0.236-0.156-0.222-0.02c0.111,0.107,0.256,0.283,0.428,0.515c0.084,0.119,0.177,0.249,0.278,0.39
		c0.037,0.13,0.125,0.028,0.21-0.041c0.083-0.066,0.169-0.135,0.258-0.205c0.708-0.56,1.563-1.205,2.512-1.908
		c1.015-0.744,2.139-1.568,3.305-2.423c1.282-0.887,2.512-1.937,3.723-2.948c-0.722,0.286-1.798,1.084-3.097,1.982
		C245.534,348.037,244.842,348.53,244.146,349.043z"/>
	<path fill="#C10005" d="M196.609,324.438c-0.752-1.33-1.491-2.753-2.151-4.09C194.673,320.868,195.232,321.964,196.609,324.438z"/>
	<path fill="#C10005" d="M191.789,317.321l-4.288-8.218c0.089,1.383,4.154,9.781,8.59,16.466l-6.221-12.532L191.789,317.321z"/>
	<path fill="#C10005" d="M474.889,270.744c-0.038-0.992-0.077-1.998-0.117-3.016c-0.07-2.032-0.122-4.111-0.161-6.226
		c-0.011-0.528-0.021-1.06-0.033-1.593c-0.033-0.532-0.067-1.068-0.102-1.605c-0.063-1.074-0.128-2.157-0.192-3.248
		c-0.137-2.179-0.204-4.389-0.374-6.613c-0.212-2.221-0.425-4.462-0.64-6.715c-0.104-1.126-0.207-2.255-0.312-3.385l-0.473-3.377
		c-0.316-2.251-0.634-4.505-0.949-6.752c-0.367-2.238-0.841-4.452-1.256-6.656c-0.443-2.199-0.81-4.397-1.398-6.522
		c-1.092-4.266-2.09-8.446-3.466-12.335c-0.646-1.956-1.289-3.864-1.932-5.713c-0.732-1.821-1.468-3.583-2.196-5.277
		c-0.74-1.689-1.426-3.328-2.201-4.854c-0.799-1.517-1.591-2.955-2.373-4.305c0.455,1.381,0.947,2.794,1.47,4.235
		c0.54,1.435,0.955,2.954,1.477,4.468c0.985,3.047,2.17,6.16,3.065,9.434c0.94,3.258,2.052,6.544,2.785,9.94
		c0.781,3.381,1.688,6.75,2.154,10.157c0.035,1.53,0.121,3.255,0.207,4.975c0.038,0.861,0.095,1.717,0.112,2.552
		c-0.013,0.838-0.026,1.65-0.038,2.41c-0.069,2.491-0.251,4.417-0.723,4.914c0.497-0.133,1.061-0.152,1.536-0.884
		c0,0,0.085,0.497,0.233,1.367c0.128,0.872,0.415,2.108,0.563,3.613c0.181,1.503,0.391,3.257,0.615,5.136
		c0.113,0.941,0.23,1.913,0.349,2.901c0.06,0.495,0.118,0.993,0.178,1.494l0.104,1.51c0.139,2.019,0.277,4.038,0.408,5.931
		c0.133,1.895,0.271,3.667,0.263,5.186c0.055,3.041,0.091,5.068,0.091,5.068s0.104-1.233,0.262-3.085
		c0.078-0.927,0.17-2.01,0.267-3.168c0.106-1.16,0.101-2.399,0.156-3.64c0.085-2.484,0.168-4.969,0.23-6.832
		c0.047-0.934,0.029-1.711,0.017-2.254c-0.009-0.544-0.015-0.855-0.015-0.855c0.555,2.121,0.716,5.047,0.961,8.263
		c0.102,1.609,0.224,3.292,0.289,4.988c0.015,1.698,0.03,3.408,0.044,5.068c0.022,1.662,0.057,3.278,0.115,4.786
		c0.062,1.509,0.017,2.904,0.092,4.139c0.117,2.466,0.416,4.273,1.028,4.937c-0.061-1.818-0.094-3.696-0.104-5.627
		C474.892,272.715,474.916,271.736,474.889,270.744z"/>
	<path fill="#C10005" d="M479.963,276.064c-0.031-2.443,0-4.876-0.156-6.705c-0.105-1.824-0.177-3.041-0.177-3.041
		c-0.54,1.953-0.815,3.665-1.016,5.308c-0.246,1.64-0.354,3.213-0.423,4.883c-0.061,1.673-0.124,3.437-0.198,5.458
		c-0.156,2.015-0.458,4.277-0.909,6.94l2.787-3.055c0,0,0.052-1.223,0.129-3.057C479.989,280.96,479.976,278.513,479.963,276.064z"
		/>
	<path fill="#C10005" d="M470.619,283.041c-0.159,0.553-0.265,0.921-0.265,0.921s-0.029,2.466-0.058,4.93
		c-0.016,1.237-0.031,2.475-0.042,3.403c-0.058,0.924-0.095,1.539-0.095,1.539s0.04-0.245,0.111-0.674
		c0.079-0.429,0.174-1.043,0.248-1.785c0.17-1.481,0.397-3.458,0.625-5.434c0.114-0.987,0.228-1.975,0.334-2.9
		c0.054-0.464,0.104-0.91,0.153-1.335c0.027-0.426,0.053-0.828,0.077-1.201c0.096-1.487,0.159-2.479,0.159-2.479
		s-0.349,1.49-0.697,2.981C471.015,281.753,470.771,282.487,470.619,283.041z"/>
	<path fill="#C10005" d="M378.283,80.721c0.852,0.509,2.132,1.139,3.552,2.074c1.442,0.907,3.124,1.966,4.926,3.101
		c0.902,0.569,1.836,1.157,2.783,1.754c0.918,0.641,1.851,1.292,2.783,1.943c1.868,1.307,3.736,2.613,5.488,3.838
		c1.696,1.304,3.279,2.521,4.636,3.564c1.357,1.049,2.487,1.924,3.279,2.536c0.4,0.302,0.705,0.551,0.904,0.729
		c0.204,0.173,0.313,0.267,0.313,0.267s-0.115-0.101-0.331-0.289c-0.21-0.193-0.535-0.459-0.956-0.788
		c-0.836-0.665-2.031-1.614-3.465-2.752c-1.446-1.121-3.071-2.501-4.922-3.842c-1.853-1.332-3.829-2.753-5.807-4.174
		c-1.942-1.461-4.037-2.712-5.934-3.971c-1.921-1.224-3.67-2.426-5.24-3.348c-3.145-1.83-5.24-3.05-5.24-3.05l1.872,1.644
		C376.926,79.955,377.42,80.234,378.283,80.721z"/>
	<path fill="#C10005" d="M144.956,66.712c2.251-1.45,4.548-2.865,6.309-4.372c0,0-3.695,2.476-7.39,4.952
		c-3.565,2.643-7.13,5.286-7.13,5.286l2.372-1.07C140.613,69.827,142.714,68.175,144.956,66.712z"/>
	<path fill="#C10005" d="M33.244,205.779c2.282,7.562-3.023,12.985,2.63,4.966C37.538,200.471,34.163,208.026,33.244,205.779z"/>
	<path fill="#C10005" d="M33.494,236.302c-0.049-0.908-0.096-1.771-0.143-2.631c-0.367,0.989-0.654,1.866-0.874,2.651
		c-0.209,0.785-0.313,1.481-0.391,2.104c-0.145,1.246-0.094,2.205,0.053,3.054c0.293,1.7,0.968,2.966,1.225,5.265
		c0.296-3.076,0.351-5.478,0.286-7.548C33.625,238.162,33.535,237.208,33.494,236.302z"/>
	<polygon fill="#C10005" points="296.09,205.967 296.096,205.973 296.097,205.962 	"/>
</g>
</svg>
